# xmcd
#
# Track frame offsets:
#	150
#	21760
#	88195
#	154744
#	169710
#	210138
#	243719
#	255437
#
# Disc length: 4417 seconds
#
# Revision: 0
# Processed by: cddbd v1.5.1PL0 Copyright (c) Steve Scherf et al.
# Submitted via: audiograbber 1.83.01
#
DISCID=5b113f08
DTITLE=Johnny Winter  - 1978-09-08 - Roslyn,NY  - FM - Disc 1
DYEAR=1900
DGENRE=
TTITLE0=Hideaway
TTITLE1=Instrumental
TTITLE2=Last Night
TTITLE3=Johnny Winter preachin'
TTITLE4=Bonnie Moroney - Band intro
TTITLE5=Bonnie Moroney
TTITLE6=J.W. preachin' #2
TTITLE7=Suzie Q
EXTD=
EXTT0=
EXTT1=
EXTT2=
EXTT3=
EXTT4=
EXTT5=
EXTT6=
EXTT7=
PLAYORDER=
